<svg width="608.977" height="54.876" viewBox="0 0 608.977 54.876" xmlns="http://www.w3.org/2000/svg">
  <g stroke-linecap="round" fill-rule="nonzero" stroke="#fff" stroke-width="0.5" fill="#fff">
    <path d="M 67.053 54.094 L 47.9 54.094 L 47.9 49.48 L 53.87 48.455 L 53.87 6.45 L 47.9 5.425 L 47.9 0.774 L 53.87 0.774 L 61.157 0.774 L 87.305 42.339 L 87.524 42.266 L 87.524 6.45 L 80.969 5.425 L 80.969 0.774 L 94.153 0.774 L 100.122 0.774 L 100.122 5.425 L 94.153 6.45 L 94.153 54.094 L 87.561 54.094 L 60.718 12.31 L 60.498 12.383 L 60.498 48.455 L 67.053 49.48 L 67.053 54.094 Z M 40.613 54.094 L 0 54.094 L 0 49.48 L 5.969 48.455 L 5.969 6.45 L 0 5.425 L 0 0.774 L 39.478 0.774 L 39.478 13.592 L 33.691 13.592 L 32.886 6.341 L 13.184 6.341 L 13.184 23.699 L 32.849 23.699 L 32.849 29.375 L 13.184 29.375 L 13.184 48.675 L 34.058 48.675 L 34.863 41.314 L 40.613 41.314 L 40.613 54.094 Z M 146.741 54.094 L 106.128 54.094 L 106.128 49.48 L 112.097 48.455 L 112.097 6.45 L 106.128 5.425 L 106.128 0.774 L 145.605 0.774 L 145.605 13.592 L 139.819 13.592 L 139.014 6.341 L 119.312 6.341 L 119.312 23.699 L 138.977 23.699 L 138.977 29.375 L 119.312 29.375 L 119.312 48.675 L 140.186 48.675 L 140.991 41.314 L 146.741 41.314 L 146.741 54.094 Z M 204.639 27.874 L 204.639 26.995 Q 204.639 18.938 207.587 12.877 Q 210.535 6.817 215.662 3.411 Q 220.789 0.005 227.307 0.005 Q 233.533 0.005 237.872 1.433 Q 242.212 2.862 245.288 5.279 L 245.288 16.045 L 239.355 16.045 L 238.586 8.318 Q 236.792 7.146 234.192 6.542 Q 231.592 5.938 228.04 5.938 Q 223.462 5.938 219.8 8.574 Q 216.138 11.211 214.014 15.917 Q 211.89 20.623 211.89 26.922 L 211.89 27.874 Q 211.89 34.246 213.849 38.988 Q 215.808 43.731 219.58 46.349 Q 223.352 48.968 228.735 48.968 Q 232.397 48.968 234.924 48.327 Q 237.451 47.686 239.392 46.66 L 239.392 34.136 L 229.175 33.77 L 229.175 28.46 L 246.606 28.46 L 246.606 49.114 Q 244.299 51.275 239.996 53.069 Q 235.693 54.864 228.735 54.864 Q 221.338 54.864 215.918 51.439 Q 210.498 48.015 207.568 41.936 Q 204.639 35.857 204.639 27.874 Z M 293.921 54.094 L 278.65 54.094 L 278.65 49.48 L 282.605 48.931 L 301.245 0.774 L 307.434 0.774 L 325.745 48.931 L 329.663 49.48 L 329.663 54.094 L 314.355 54.094 L 314.355 49.48 L 318.384 48.784 L 314.868 38.97 L 293.518 38.97 L 289.893 48.784 L 293.921 49.48 L 293.921 54.094 Z M 303.735 11.248 L 295.752 32.927 L 312.671 32.927 L 304.834 11.248 L 304.395 10.039 L 304.175 10.039 L 303.735 11.248 Z M 173.108 54.094 L 153.955 54.094 L 153.955 49.48 L 159.924 48.455 L 159.924 6.45 L 153.955 5.425 L 153.955 0.811 L 177.722 0.811 Q 183.545 0.811 187.555 2.55 Q 191.565 4.29 193.652 7.586 Q 195.74 10.882 195.74 15.642 Q 195.74 20.33 193.707 23.516 Q 191.675 26.702 187.939 28.332 Q 184.204 29.961 179.077 30.071 L 167.139 30.291 L 167.139 48.455 L 173.108 49.48 L 173.108 54.094 Z M 167.139 6.45 L 167.139 24.615 L 176.99 24.615 Q 183.032 24.615 185.779 22.307 Q 188.525 20 188.525 15.569 Q 188.525 11.358 185.889 8.904 Q 183.252 6.45 177.722 6.45 L 167.139 6.45 Z M 273.12 54.094 L 253.967 54.094 L 253.967 49.48 L 259.937 48.455 L 259.937 6.45 L 253.967 5.425 L 253.967 0.774 L 273.12 0.774 L 273.12 5.425 L 267.151 6.45 L 267.151 48.455 L 273.12 49.48 L 273.12 54.094 Z M 198.047 54.094 L 189.148 54.094 L 177.283 27.471 L 184.497 27.398 L 194.348 48.711 L 198.047 49.37 L 198.047 54.094 Z"/>
  </g>
  <g transform="translate(336.663 0)" stroke-linecap="round" fill-rule="nonzero" stroke="#22ac35" stroke-width="0.5" fill="#22ac35">
    <path d="M 172.119 54.098 L 129.932 54.098 L 129.932 47.69 L 135.608 46.591 L 135.608 8.322 L 129.932 7.223 L 129.932 0.778 L 171.313 0.778 L 171.313 15.17 L 163.11 15.17 L 162.634 9.018 L 146.301 9.018 L 146.301 22.421 L 164.355 22.421 L 164.355 30.661 L 146.301 30.661 L 146.301 45.895 L 163.513 45.895 L 163.989 39.523 L 172.119 39.523 L 172.119 54.098 Z M 177.686 28.354 L 177.686 26.559 Q 177.686 18.796 180.707 12.808 Q 183.728 6.82 189.331 3.415 Q 194.934 0.009 202.661 0.009 Q 208.081 0.009 212.823 1.547 Q 217.566 3.085 221.301 6.235 L 221.301 19.125 L 213.354 19.125 L 212.256 11.032 Q 211.047 10.153 209.619 9.53 Q 208.191 8.908 206.525 8.578 Q 204.858 8.249 202.917 8.249 Q 198.376 8.249 195.117 10.483 Q 191.858 12.716 190.118 16.8 Q 188.379 20.883 188.379 26.486 L 188.379 28.354 Q 188.379 33.957 190.21 38.058 Q 192.041 42.16 195.41 44.412 Q 198.779 46.664 203.394 46.664 Q 205.701 46.664 208.026 46.133 Q 210.352 45.602 212.256 44.76 L 213.354 37.253 L 221.301 37.253 L 221.301 49.997 Q 218.188 52.048 213.538 53.457 Q 208.887 54.867 203.21 54.867 Q 195.447 54.867 189.697 51.626 Q 183.948 48.385 180.817 42.434 Q 177.686 36.484 177.686 28.354 Z M 259.57 54.098 L 237.415 54.098 L 237.415 47.69 L 243.127 46.591 L 243.127 9.018 L 233.423 9.018 L 232.837 15.39 L 224.744 15.39 L 224.744 0.778 L 272.314 0.778 L 272.314 15.39 L 264.185 15.39 L 263.599 9.018 L 253.821 9.018 L 253.821 46.591 L 259.57 47.69 L 259.57 54.098 Z M 100.452 54.098 L 78.369 54.098 L 78.369 47.69 L 84.045 46.591 L 84.045 8.322 L 78.369 7.223 L 78.369 0.778 L 103.638 0.778 Q 109.79 0.778 114.185 2.682 Q 118.579 4.587 120.941 8.139 Q 123.303 11.691 123.303 16.672 Q 123.303 21.359 120.959 25.058 Q 118.616 28.757 114.441 30.881 Q 110.266 33.005 104.81 33.041 L 94.739 33.041 L 94.739 46.591 L 100.452 47.69 L 100.452 54.098 Z M 94.739 9.018 L 94.739 24.801 L 103.455 24.801 Q 108.069 24.801 110.358 22.842 Q 112.646 20.883 112.646 17.148 Q 112.646 13.449 110.376 11.233 Q 108.105 9.018 103.638 9.018 L 94.739 9.018 Z M 23.547 54.098 L 0 54.098 L 0 47.69 L 5.75 46.481 L 5.75 8.468 L 0 7.223 L 0 0.778 L 5.75 0.778 L 23.401 0.778 Q 30.542 0.778 35.999 4.129 Q 41.455 7.48 44.513 13.394 Q 47.571 19.308 47.571 26.962 L 47.571 27.951 Q 47.571 35.531 44.55 41.446 Q 41.528 47.36 36.108 50.729 Q 30.688 54.098 23.547 54.098 Z M 16.443 8.981 L 16.443 45.932 L 22.998 45.932 Q 27.429 45.932 30.505 43.606 Q 33.582 41.281 35.211 37.216 Q 36.841 33.151 36.841 27.951 L 36.841 26.925 Q 36.841 21.652 35.211 17.605 Q 33.582 13.559 30.505 11.27 Q 27.429 8.981 22.998 8.981 L 16.443 8.981 Z M 74.268 54.098 L 52.222 54.098 L 52.222 47.69 L 57.898 46.591 L 57.898 8.322 L 52.222 7.223 L 52.222 0.778 L 74.268 0.778 L 74.268 7.223 L 68.591 8.322 L 68.591 46.591 L 74.268 47.69 L 74.268 54.098 Z M 125.647 54.098 L 112.683 54.098 L 103.711 31.064 L 113.342 28.683 L 121.106 46.628 L 125.647 47.69 L 125.647 54.098 Z"/>
  </g>
</svg>
