<svg width="150" height="45" viewBox="0 0 150 45" fill="none" xmlns="http://www.w3.org/2000/svg">
<g clip-path="url(#clip0_3987_19269)">
<path d="M34.1673 24.2333L31.1494 26.6283C30.4383 27.1702 30.0685 27.6836 29.7016 28.4672C29.6788 28.517 29.6546 28.5653 29.6319 28.6094C27.2895 34.9695 22.7726 39.9444 17.4308 43.4957C16.7979 43.9223 16.6087 44.3404 17.1222 44.6035C17.1705 44.6292 17.2174 44.6533 17.2644 44.6761C17.7863 44.9207 18.1917 44.9022 18.742 44.6249C26.668 40.6313 32.8034 33.5317 35.0291 24.6955C35.2695 23.7526 34.8087 23.8323 34.1673 24.2333Z" fill="white"/>
<path d="M41.5924 18.4536C41.4526 18.3605 41.3073 18.2759 41.1572 18.2004C40.8794 18.0427 40.5524 17.9955 40.2413 18.0682C40.2043 18.0767 40.1659 18.0881 40.1261 18.1009C38.6232 18.5954 37.1689 19.2266 35.7813 19.9867C34.2004 20.847 32.6747 21.805 31.2131 22.8553C24.314 27.769 17.9354 34.7179 14.3429 38.4156L14.2818 38.4669C13.9746 38.7015 13.7129 38.5906 13.5038 38.4213C13.4206 38.3497 13.3436 38.2712 13.2734 38.1867C11.8985 36.5795 10.6119 34.8988 9.41927 33.1521C8.47777 31.7555 7.77235 30.6035 7.19209 29.5567C6.69574 28.6636 6.27335 27.8074 5.89078 26.9797C5.38575 25.7476 4.97266 24.4798 4.65488 23.1867C4.51346 22.5015 4.40855 21.8094 4.34057 21.1131C4.33987 21.1079 4.33987 21.1027 4.34057 21.0975C4.19835 19.7862 4.14004 18.4052 4.12582 17.1807C4.11018 15.7585 4.12582 11.4919 4.12582 11.4919C4.12583 11.1152 4.26177 10.7511 4.50867 10.4666C4.75557 10.1821 5.09685 9.9962 5.4698 9.94312C8.59012 9.51645 13.2919 8.46545 17.0608 5.93677C17.3189 5.76312 17.6229 5.67037 17.934 5.67037C18.2451 5.67037 18.5491 5.76312 18.8072 5.93677C22.5718 8.46545 27.2779 9.51077 30.3968 9.94312C30.7685 9.99602 31.1089 10.1809 31.3556 10.4639C31.6024 10.7469 31.7391 11.1093 31.7408 11.4848V16.8394C31.7408 17.6387 31.7408 18.4906 31.6867 19.4164C31.6867 19.4648 31.6867 19.5131 31.6782 19.5586V19.5658C31.6626 20.1119 31.8489 20.9752 32.9468 20.3167C34.1557 19.5914 34.4302 19.4221 34.8156 19.1789C35.201 18.9357 35.8111 18.5588 35.8638 17.7752C35.8638 17.7396 35.8638 17.7027 35.8638 17.6671C35.8638 17.3827 35.8638 17.1053 35.8638 16.8351V7.97336C35.8639 7.56478 35.7041 7.17236 35.4187 6.88002C35.1333 6.58767 34.7448 6.41859 34.3363 6.40894L33.8485 6.39756C33.7518 6.39756 24.1135 5.82868 19.3903 1.1098L19.0391 0.758518C18.8938 0.613169 18.7213 0.497869 18.5314 0.419203C18.3416 0.340538 18.1381 0.300049 17.9326 0.300049C17.7271 0.300049 17.5236 0.340538 17.3337 0.419203C17.1439 0.497869 16.9714 0.613169 16.8261 0.758518L16.4748 1.1098C11.7517 5.83294 2.11055 6.39614 2.01811 6.39756L1.53172 6.40894C0.678393 6.426 0 7.40448 0 7.97336V17.2732C0.0469328 20.5826 0.530483 23.4441 1.3511 26.0453C1.95712 27.9412 2.76032 29.7683 3.74751 31.4966C6.10126 35.6722 9.35242 39.4254 12.7444 43.9509C12.8615 44.1138 13.0058 44.2552 13.171 44.369C13.6902 44.7018 14.2391 44.6236 14.5676 44.15C14.6956 43.9651 21.9005 34.3851 24.9497 31.151L24.9654 31.134C26.6308 29.3704 28.4029 27.6311 30.2418 26.0226C31.9174 24.539 33.6911 23.1701 35.5509 21.9252C36.8381 21.0678 38.1872 20.3072 39.5871 19.6497C39.9185 19.4961 41.2454 18.9528 41.5782 18.8362C41.7204 18.7992 41.8256 18.5958 41.5924 18.4536Z" fill="white"/>
<path d="M92.3408 32.3286C91.8018 32.3377 91.2645 32.2663 90.7465 32.1167C90.3138 31.9871 89.9067 31.7836 89.5434 31.5151V38.9006H86.8042V17.2959H89.0797L89.1779 18.3697C89.9364 17.4576 91.1405 17.002 92.7903 17.0029C94.2864 17.0029 95.6418 17.6918 96.8563 19.0694C98.0709 20.447 98.6787 22.3068 98.6796 24.6487C98.6796 26.9242 98.0937 28.7731 96.9218 30.1953C95.7499 31.6175 94.2205 32.3286 92.3337 32.3286H92.3408ZM92.2441 19.4107C91.7143 19.403 91.1901 19.5199 90.7138 19.7521C90.2633 19.9761 89.8646 20.292 89.5434 20.6793V28.7489C89.8746 29.1003 90.2725 29.3822 90.7138 29.5781C91.1958 29.7899 91.7177 29.8956 92.2441 29.8881C93.2871 29.8881 94.1546 29.4055 94.8468 28.4403C95.5389 27.4751 95.8859 26.2112 95.8878 24.6487C95.8878 23.1089 95.5408 21.8508 94.8468 20.8742C94.1527 19.8976 93.2852 19.4098 92.2441 19.4107Z" fill="white"/>
<path d="M82.6799 32.5234C81.9688 32.3286 81.3416 31.8991 80.7713 31.2434C80.201 30.5878 79.918 29.6662 79.918 28.4943V9.64868H82.6799V28.1957C82.6643 28.7544 82.83 29.3032 83.1521 29.7601C83.428 30.1667 83.836 30.4657 84.3069 30.6063L82.6799 32.5234Z" fill="white"/>
<path d="M76.991 23.8679L75.5148 25.3328H68.4905C68.4865 26.4933 68.8834 27.6197 69.6141 28.5214C70.3621 29.4752 71.3762 29.9526 72.6562 29.9535C74.0027 29.9684 75.3089 29.4944 76.3326 28.6195L75.812 31.4497C75.3389 31.7361 74.8254 31.9499 74.2888 32.084C73.6188 32.2542 72.9294 32.3364 72.238 32.3286C70.3949 32.3286 68.8442 31.6175 67.586 30.1953C66.3278 28.7731 65.6987 26.9242 65.6987 24.6487C65.6987 22.3277 66.2951 20.4731 67.4879 19.085C68.6806 17.697 70.0905 17.0029 71.7175 17.0029C73.3227 17.0029 74.6027 17.5562 75.5575 18.6626C76.5024 19.7414 77.0133 21.1326 76.991 22.5666V23.8679ZM71.8427 19.2799C71.105 19.2799 70.4219 19.6435 69.7933 20.3707C69.1486 21.1314 68.7412 22.0645 68.6214 23.0544H74.2504L74.2832 22.5339C74.2955 21.7274 74.0564 20.937 73.5991 20.2726C73.144 19.6089 72.5585 19.277 71.8427 19.277V19.2799Z" fill="white"/>
<path d="M60.5193 32.0356V22.1513C60.5193 21.3264 60.3079 20.6594 59.885 20.1502C59.4621 19.6411 58.806 19.386 57.9167 19.3851C57.0491 19.3851 56.3821 19.651 55.9156 20.183C55.4439 20.7282 55.1942 21.4307 55.2159 22.1513V32.0356H52.4824V9.64868H55.2159V18.3696C56.0835 17.4575 57.2212 17.002 58.6292 17.0029C60.0173 17.0029 61.1399 17.4419 61.997 18.3199C62.8541 19.1978 63.2808 20.364 63.277 21.8185V32.0356H60.5193Z" fill="white"/>
<path d="M139.944 32.0356L139.853 30.969C139.094 31.8792 137.89 32.3347 136.24 32.3357C134.744 32.3357 133.383 31.6412 132.157 30.2522C130.931 28.8631 130.318 27.0086 130.318 24.6885C130.318 22.4329 130.915 20.5892 132.109 19.1575C133.303 17.7259 134.832 17.01 136.696 17.01C137.225 17.0014 137.752 17.0729 138.26 17.2219C138.701 17.3558 139.118 17.5589 139.496 17.8235V9.64868H142.229V32.0356H139.944ZM139.489 20.5826C139.157 20.2303 138.759 19.9479 138.317 19.752C137.824 19.5381 137.29 19.4328 136.752 19.4434C135.709 19.4434 134.842 19.926 134.15 20.8912C133.458 21.8564 133.111 23.1198 133.109 24.6814C133.109 26.2212 133.456 27.4793 134.15 28.4559C134.844 29.4325 135.711 29.9208 136.752 29.9208C137.287 29.9276 137.816 29.8103 138.298 29.578C138.756 29.3573 139.161 29.0411 139.486 28.6508V20.5869L139.489 20.5826Z" fill="white"/>
<path d="M125.14 32.0355V22.1512C125.14 21.3263 124.928 20.6593 124.506 20.1501C124.083 19.641 123.426 19.3859 122.536 19.385C121.668 19.385 121.001 19.6509 120.535 20.1829C120.063 20.7281 119.813 21.4306 119.835 22.1512V32.0355H117.07V17.2958H119.515L119.612 18.6625C120.011 18.1488 120.516 17.7268 121.092 17.4252C121.646 17.1408 122.368 16.9985 123.257 16.9985C124.645 16.9985 125.762 17.4323 126.608 18.2999C127.453 19.1674 127.876 20.3388 127.876 21.8141V32.0355H125.14Z" fill="white"/>
<path d="M110.855 32.0356V17.2959H113.621V32.0356H110.855Z" fill="white"/>
<path d="M112.262 14.6605C111.977 14.6605 111.637 14.4372 111.236 13.9935C110.835 13.5498 110.635 13.1743 110.635 12.8699C110.635 12.5656 110.835 12.1588 111.236 11.7151C111.637 11.2714 111.98 11.0481 112.262 11.0481C112.522 11.0481 112.858 11.2761 113.27 11.7322C113.683 12.1882 113.889 12.5675 113.889 12.8699C113.889 13.1743 113.688 13.5488 113.286 13.9935C112.885 14.4372 112.543 14.6605 112.262 14.6605Z" fill="white"/>
<path d="M109.294 12.3822C108.69 12.0298 108.001 11.8498 107.303 11.8617C106.926 11.8528 106.555 11.9451 106.226 12.1289C105.898 12.3128 105.624 12.5815 105.435 12.907C104.991 13.6011 104.768 14.4691 104.768 15.5111V17.3002H108.217L107.859 19.5757H104.771V32.0357H102.005V19.5729H99.9883V17.2974H102.005V16.1909C102.005 11.7441 103.838 9.52075 107.505 9.52075C108.349 9.52075 109.065 9.68336 109.652 10.0086L109.294 12.3836V12.3822Z" fill="white"/>
<path d="M147.42 9.64865C146.921 9.65791 146.435 9.81466 146.024 10.0992C145.614 10.3837 145.296 10.7833 145.112 11.2477C144.928 11.7121 144.886 12.2205 144.99 12.7091C145.094 13.1977 145.34 13.6446 145.698 13.9936C146.055 14.3426 146.508 14.578 146.999 14.6704C147.49 14.7628 147.997 14.7079 148.457 14.5128C148.917 14.3176 149.308 13.9908 149.583 13.5734C149.858 13.1561 150.003 12.6669 150 12.1674C149.996 11.8325 149.927 11.5017 149.795 11.1938C149.663 10.8859 149.472 10.607 149.232 10.373C148.993 10.1391 148.709 9.95467 148.398 9.83038C148.087 9.70608 147.755 9.64433 147.42 9.64865ZM147.436 14.1784C146.298 14.1784 145.472 13.2881 145.472 12.1674C145.472 11.0467 146.299 10.1564 147.42 10.1564C148.541 10.1564 149.354 11.0609 149.354 12.1816C149.354 13.3023 148.541 14.1784 147.436 14.1784Z" fill="white"/>
<path d="M147.855 12.1475V12.1219C148.114 12.0437 148.295 11.863 148.295 11.6312C148.297 11.5432 148.28 11.4558 148.244 11.3754C148.208 11.2949 148.155 11.2235 148.088 11.1662C147.933 11.0766 147.753 11.0111 147.352 11.0111C147.079 11.0064 146.807 11.0283 146.54 11.0766V13.1914H147.03V12.338H147.262C147.532 12.338 147.662 12.4404 147.7 12.6737C147.731 12.853 147.787 13.0269 147.868 13.19H148.397C148.316 13.0234 148.264 12.8446 148.242 12.6609C148.178 12.3793 148.061 12.2243 147.855 12.1475ZM147.275 11.9925H147.043V11.3852C147.132 11.3662 147.222 11.3576 147.313 11.3596C147.623 11.3596 147.765 11.489 147.765 11.6824C147.765 11.9014 147.545 11.9925 147.275 11.9925Z" fill="white"/>
</g>
<defs>
<clipPath id="clip0_3987_19269">
<rect width="150" height="45" fill="white"/>
</clipPath>
</defs>
</svg>