<svg xmlns="http://www.w3.org/2000/svg" width="180" height="32" viewBox="0 0 180 32" fill="none">
  <path d="M100.084 24.971C100.26 26.5465 101.363 27.4615 102.841 27.4615C103.847 27.4615 104.75 26.9706 105.235 26.1708L106.101 26.5465C105.453 27.7281 104.192 28.4189 102.811 28.4189C100.732 28.4189 99.0782 26.8616 99.0782 24.5287C99.0782 22.1958 100.732 20.687 102.811 20.687C104.889 20.687 106.453 22.2019 106.453 24.5287C106.453 24.6681 106.434 24.8256 106.422 24.971H100.084ZM105.441 24.1045C105.301 22.5775 104.241 21.6444 102.811 21.6444C101.381 21.6444 100.308 22.5291 100.102 24.1045H105.441Z" fill="#fff"/>
  <path d="M115.772 28.2371H114.53L111.282 23.2441L108.034 28.2371H106.804L110.664 22.3897L107.295 17.3785H108.537L111.276 21.5535L114.015 17.3785H115.257L111.888 22.3897L115.766 28.2371H115.772Z" fill="#fff"/>
  <path d="M116.057 24.5469C116.057 22.214 117.856 20.687 119.965 20.687C121.007 20.687 121.953 21.0809 122.595 21.6929L121.983 22.3836C121.48 21.9292 120.771 21.6444 119.995 21.6444C118.372 21.6444 117.063 22.8078 117.063 24.5408C117.063 26.2738 118.372 27.4554 119.995 27.4554C120.765 27.4554 121.462 27.1706 121.983 26.7162L122.613 27.4069C121.953 28.0371 121.007 28.4128 119.965 28.4128C117.856 28.4128 116.057 26.8676 116.057 24.5347V24.5469Z" fill="#fff"/>
  <path d="M130.6 28.231H129.594V23.9955C129.594 22.5775 128.697 21.6807 127.515 21.6807C126.334 21.6807 125.091 22.3715 125.055 24.153V28.231H124.049V16.8695H125.055V22.1958C125.497 21.1414 126.691 20.6809 127.606 20.6809C129.388 20.6809 130.6 21.911 130.6 23.9409V28.231Z" fill="#fff"/>
  <path d="M138.871 20.8748H139.877V28.231H138.871V26.704C138.337 27.7099 137.198 28.4189 135.895 28.4189C133.896 28.4189 132.211 26.7343 132.211 24.5408C132.211 22.3473 133.835 20.6809 135.932 20.6809C137.192 20.6809 138.325 21.2929 138.877 22.3049V20.8688L138.871 20.8748ZM138.871 24.5772C138.871 22.8623 137.483 21.6444 136.005 21.6444C134.526 21.6444 133.199 22.9653 133.199 24.5408C133.199 26.1163 134.459 27.4554 136.017 27.4554C137.574 27.4554 138.871 26.2253 138.871 24.5711V24.5772Z" fill="#fff"/>
  <path d="M148.62 28.231H147.614V23.9955C147.614 22.5775 146.718 21.6807 145.536 21.6807C144.354 21.6807 143.112 22.3715 143.076 24.153V28.231H142.07V20.8748H143.076V22.1958C143.518 21.1414 144.712 20.6809 145.627 20.6809C147.408 20.6809 148.62 21.911 148.62 23.9409V28.231Z" fill="#fff"/>
  <path d="M156.922 20.8748H157.928V27.2251C157.928 30.7881 156.334 32 153.941 32C152.698 32 151.48 31.388 150.759 30.1882L151.608 29.7156C152.141 30.6003 153.056 31.0365 153.941 31.0365C155.734 31.0365 156.916 30.1216 156.916 27.2857V26.8131C156.364 27.8069 155.213 28.4189 153.983 28.4189C151.935 28.4189 150.25 26.7767 150.25 24.5408C150.25 22.3049 151.923 20.6809 153.983 20.6809C155.225 20.6809 156.364 21.2929 156.916 22.2867V20.8688L156.922 20.8748ZM156.922 24.5772C156.922 22.7957 155.534 21.6444 154.068 21.6444C152.523 21.6444 151.262 22.9048 151.262 24.5287C151.262 26.1526 152.523 27.4615 154.068 27.4615C155.613 27.4615 156.922 26.2799 156.922 24.5772Z" fill="#fff"/>
  <path d="M160.691 24.971C160.867 26.5465 161.969 27.4615 163.448 27.4615C164.454 27.4615 165.357 26.9706 165.841 26.1708L166.708 26.5465C166.059 27.7281 164.799 28.4189 163.418 28.4189C161.339 28.4189 159.685 26.8616 159.685 24.5287C159.685 22.1958 161.339 20.687 163.418 20.687C165.496 20.687 167.059 22.2019 167.059 24.5287C167.059 24.6681 167.041 24.8256 167.029 24.971H160.691ZM166.047 24.1045C165.908 22.5775 164.848 21.6444 163.418 21.6444C161.988 21.6444 160.915 22.5291 160.709 24.1045H166.047Z" fill="#fff"/>
  <path d="M104.005 6.62905L106.998 10.8646H105.738L102.762 6.61087H100.951V10.8646H99.9083V0.0121186H103.944C106.21 0.0121186 107.077 1.64817 107.077 3.32058C107.077 4.99299 106.162 6.62905 104.035 6.62905H104.005ZM100.951 0.987692V5.65347H103.689C105.392 5.65347 106.034 4.61125 106.034 3.32058C106.034 2.02992 105.344 0.987692 103.956 0.987692H100.945H100.951Z" fill="#fff"/>
  <path d="M109.252 7.60462C109.428 9.18008 110.531 10.0951 112.009 10.0951C113.015 10.0951 113.918 9.60424 114.403 8.80439L115.269 9.18008C114.621 10.3617 113.36 11.0525 111.979 11.0525C109.9 11.0525 108.246 9.49517 108.246 7.16228C108.246 4.82939 109.9 3.32058 111.979 3.32058C114.057 3.32058 115.621 4.83545 115.621 7.16228C115.621 7.30165 115.602 7.45919 115.59 7.60462H109.252ZM114.609 6.73812C114.469 5.21113 113.409 4.27798 111.979 4.27798C110.549 4.27798 109.476 5.16266 109.27 6.73812H114.609Z" fill="#fff"/>
  <path d="M116.56 7.18046C116.56 4.84757 118.359 3.32058 120.468 3.32058C121.51 3.32058 122.456 3.71445 123.098 4.32645L122.486 5.01723C121.983 4.56277 121.274 4.27798 120.498 4.27798C118.874 4.27798 117.566 5.44139 117.566 7.1744C117.566 8.9074 118.874 10.089 120.498 10.089C121.268 10.089 121.965 9.8042 122.486 9.34974L123.116 10.0405C122.456 10.6707 121.51 11.0464 120.468 11.0464C118.359 11.0464 116.56 9.50123 116.56 7.16834V7.18046Z" fill="#fff"/>
  <path d="M128.945 3.53872L128.757 4.50218C128.382 4.34463 128.03 4.29616 127.764 4.29616C126.012 4.29616 125.479 6.28366 125.479 8.09544V10.8707H124.455V3.51449H125.479V5.30808C125.843 4.0659 126.631 3.32058 127.782 3.32058C128.194 3.32058 128.667 3.39936 128.945 3.53872Z" fill="#fff"/>
  <path d="M135.277 3.50843H136.283V10.8646H135.277V9.57394C134.835 10.6162 133.641 11.0525 132.726 11.0525C130.945 11.0525 129.733 9.82238 129.751 7.79246V3.50843H130.757V7.78034C130.757 9.19826 131.642 10.0951 132.835 10.0951C134.029 10.0951 135.259 9.40428 135.277 7.6228V3.50843Z" fill="#fff"/>
  <path d="M138.034 0.799848C138.034 0.375686 138.398 0.0727134 138.804 0.0727134C139.246 0.0727134 139.592 0.369627 139.592 0.799848C139.592 1.23007 139.246 1.5088 138.804 1.5088C138.392 1.5088 138.034 1.21189 138.034 0.799848ZM138.301 10.8646V3.50843H139.307V10.8646H138.301Z" fill="#fff"/>
  <path d="M144.506 3.50843V4.37493H142.821V10.8646H141.828V4.37493H140.489V3.50843H141.828V0.751373H142.821V3.50843H144.506Z" fill="#fff"/>
  <path d="M157.304 6.58057V10.8646H156.298V6.62905C156.298 5.21113 155.449 4.29616 154.231 4.29616C152.844 4.27798 151.929 5.14448 151.929 7.1138V10.8646H150.935V6.62905C150.935 5.19296 150.087 4.29616 148.917 4.29616C147.748 4.29616 146.603 5.02329 146.572 6.78659V10.8646H145.566V3.50843H146.572V4.81727C146.936 3.8417 148.008 3.32058 149.093 3.32058C150.275 3.32058 151.268 3.95077 151.674 5.08389C152.244 3.63568 153.516 3.32058 154.383 3.32058C156.164 3.32058 157.297 4.55065 157.297 6.58057H157.304Z" fill="#fff"/>
  <path d="M159.745 7.60462C159.921 9.18008 161.024 10.0951 162.503 10.0951C163.508 10.0951 164.411 9.60424 164.896 8.80439L165.763 9.18008C165.114 10.3617 163.854 11.0525 162.472 11.0525C160.394 11.0525 158.74 9.49517 158.74 7.16228C158.74 4.82939 160.394 3.32058 162.472 3.32058C164.551 3.32058 166.114 4.83545 166.114 7.16228C166.114 7.30165 166.096 7.45919 166.084 7.60462H159.745ZM165.102 6.73812C164.963 5.21113 163.902 4.27798 162.472 4.27798C161.042 4.27798 159.97 5.16266 159.764 6.73812H165.102Z" fill="#fff"/>
  <path d="M174.125 10.8646H173.119V6.62905C173.119 5.21113 172.222 4.31433 171.04 4.31433C169.859 4.31433 168.617 5.00511 168.58 6.78659V10.8646H167.574V3.50843H168.58V4.82939C169.023 3.77504 170.216 3.31452 171.131 3.31452C172.913 3.31452 174.125 4.54459 174.125 6.57451V10.8646Z" fill="#fff"/>
  <path d="M179.215 3.50843V4.37493H177.53V10.8646H176.536V4.37493H175.197V3.50843H176.536V0.751373H177.53V3.50843H179.215Z" fill="#fff"/>
  <path d="M14.4336 28.4249L7.67128 18.239H5.73225V28.4249H0V0.0181782H11.3372C17.8512 0.0181782 20.6567 4.63549 20.6567 9.29521C20.6567 13.3369 17.8087 17.2937 13.8095 17.9966L21.1475 28.431H14.4276L14.4336 28.4249ZM5.73831 5.08994V13.6277H10.3132C13.5308 13.6277 14.8881 11.6887 14.8881 9.42246C14.8881 7.15622 13.4459 5.096 10.7677 5.096H5.73831V5.08994Z" fill="#fff"/>
  <path d="M42.5132 20.0568H28.0432C28.6188 22.323 30.4367 23.644 32.9938 23.644C34.9752 23.644 36.8718 22.7351 38.0655 21.3778L41.1983 24.5529C39.3865 26.9828 36.0417 28.431 32.6605 28.431C26.7222 28.431 22.3958 24.2681 22.3958 18.3299C22.3958 12.3916 27.1403 8.18633 32.6241 8.18633C38.1079 8.18633 42.6404 12.1007 42.6404 17.9966C42.6404 18.5298 42.598 19.1903 42.5192 20.0568M37.193 16.5484C37.0294 14.2821 35.1752 12.84 32.7393 12.84C30.5154 12.84 28.6188 13.9549 28.0371 16.5484H37.193Z" fill="#fff"/>
  <path d="M69.1445 28.4249H62.3458L55.8682 17.8269L49.3543 28.4249H42.6343L52.4507 13.252L43.5009 0.0181782H50.4268L55.8682 8.71956L61.352 0.0181782H68.1992L59.2494 13.252L69.1445 28.4249Z" fill="#fff"/>
  <path d="M84.7173 0H83.3781V28.4067H84.7173V0Z" fill="#fff"/>
</svg>
